<?xml version="1.0" standalone="no"?>
<svg
  width="600"
  height="600"
  viewBox="0 0 600 600"
  xmlns="http://www.w3.org/2000/svg"
>
  <g transform="translate(300,300)">
    <path d="M75.7,-110.5C97.8,-88.2,115,-65.6,140.7,-34.4C166.4,-3.2,200.7,36.6,196.7,68.5C192.7,100.5,150.4,124.7,111.3,159.8C72.1,194.9,36.1,241,2.4,237.6C-31.2,234.2,-62.3,181.4,-94,143.9C-125.7,106.4,-158,84.1,-175.4,51.9C-192.7,19.8,-195.3,-22.2,-192.4,-72.2C-189.5,-122.1,-181.1,-180,-148.2,-198.8C-115.2,-217.6,-57.6,-197.3,-15.4,-176.1C26.8,-154.9,53.7,-132.9,75.7,-110.5Z" fill="#9294e5" />
  </g>
</svg>
    